<svg width="178" height="48" viewBox="0 0 178 48" fill="none" xmlns="http://www.w3.org/2000/svg">
<path d="M31.7367 19.015V44.6418L28.2294 42.8693L19.7972 38.7336V22.9291L28.2294 20.1966L31.7367 19.015Z" fill="#682DFE"/>
<path d="M43.6761 3.35822V15.1008L31.7366 19.015V15.1008H31.8113H31.7366V7.2724L43.6761 3.35822Z" fill="#682DFE"/>
<path d="M28.2294 4.466V16.2086L19.7972 19.015L7.85767 22.9291V11.1127L19.7972 7.19855L28.2294 4.466Z" fill="#682DFE"/>
<path d="M57.723 38.1467V23.5596H51.9472V19.342H68.7909V23.5596H63.042V38.1467H57.723ZM76.691 38.3885C74.9717 38.3885 73.4673 38.0661 72.1778 37.4214C70.9063 36.7587 69.9123 35.8633 69.1959 34.735C68.4975 33.5888 68.1482 32.2904 68.1482 30.8397C68.1482 29.3891 68.4885 28.0996 69.1691 26.9713C69.8675 25.8251 70.8257 24.9386 72.0435 24.3118C73.2613 23.6671 74.6314 23.3447 76.1537 23.3447C77.5864 23.3447 78.8938 23.6402 80.0758 24.2312C81.2578 24.8043 82.198 25.655 82.8965 26.7833C83.595 27.9116 83.9442 29.2816 83.9442 30.8935C83.9442 31.0725 83.9352 31.2785 83.9173 31.5113C83.8994 31.7441 83.8815 31.9591 83.8636 32.1561H72.339V29.4697H81.1504L79.2162 30.2219C79.2341 29.5592 79.1087 28.9861 78.8401 28.5026C78.5893 28.019 78.2312 27.6429 77.7655 27.3743C77.3178 27.1056 76.7895 26.9713 76.1805 26.9713C75.5716 26.9713 75.0344 27.1056 74.5687 27.3743C74.121 27.6429 73.7718 28.028 73.521 28.5294C73.2703 29.013 73.1449 29.5861 73.1449 30.2487V31.0278C73.1449 31.7441 73.2882 32.362 73.5747 32.8814C73.8792 33.4007 74.309 33.8037 74.8642 34.0903C75.4194 34.3589 76.082 34.4932 76.8521 34.4932C77.5685 34.4932 78.1774 34.3947 78.6789 34.1977C79.1983 33.9828 79.7087 33.6604 80.2101 33.2306L82.8965 36.0245C82.198 36.7946 81.3384 37.3856 80.3176 37.7975C79.2968 38.1915 78.0879 38.3885 76.691 38.3885ZM94.7959 38.1467V35.4334L94.4467 34.7619V29.7652C94.4467 28.9593 94.196 28.3414 93.6945 27.9116C93.211 27.4638 92.4319 27.24 91.3574 27.24C90.6589 27.24 89.9515 27.3564 89.2351 27.5892C88.5188 27.8041 87.9098 28.1086 87.4084 28.5026L85.6891 25.0371C86.5129 24.4999 87.4979 24.0879 88.6441 23.8014C89.8082 23.4969 90.9634 23.3447 92.1096 23.3447C94.4736 23.3447 96.3003 23.8909 97.5898 24.9834C98.8972 26.058 99.5508 27.7504 99.5508 30.0607V38.1467H94.7959ZM90.4977 38.3885C89.3336 38.3885 88.3486 38.1915 87.5427 37.7975C86.7368 37.4035 86.1189 36.8662 85.6891 36.1856C85.2772 35.5051 85.0712 34.7439 85.0712 33.9022C85.0712 33.0067 85.2951 32.2366 85.7428 31.5919C86.2085 30.9293 86.9159 30.4278 87.8651 30.0875C88.8143 29.7294 90.041 29.5503 91.5454 29.5503H94.984V32.2098H92.2439C91.4201 32.2098 90.838 32.3441 90.4977 32.6127C90.1754 32.8814 90.0142 33.2396 90.0142 33.6873C90.0142 34.135 90.1843 34.4932 90.5246 34.7619C90.8649 35.0305 91.3305 35.1648 91.9215 35.1648C92.4767 35.1648 92.9782 35.0305 93.4259 34.7619C93.8915 34.4753 94.2318 34.0455 94.4467 33.4724L95.1452 35.3529C94.8765 36.3558 94.3482 37.1169 93.5602 37.6363C92.7901 38.1377 91.7693 38.3885 90.4977 38.3885ZM121.739 23.3447C122.867 23.3447 123.87 23.5775 124.747 24.0432C125.643 24.4909 126.341 25.1894 126.843 26.1385C127.362 27.0877 127.622 28.3145 127.622 29.8189V38.1467H122.518V30.6517C122.518 29.6129 122.321 28.8608 121.927 28.3951C121.533 27.9116 120.995 27.6698 120.315 27.6698C119.831 27.6698 119.392 27.7862 118.998 28.019C118.604 28.2518 118.3 28.61 118.085 29.0936C117.87 29.5592 117.763 30.1681 117.763 30.9203V38.1467H112.659V30.6517C112.659 29.6129 112.462 28.8608 112.068 28.3951C111.691 27.9116 111.154 27.6698 110.456 27.6698C109.954 27.6698 109.506 27.7862 109.112 28.019C108.736 28.2518 108.432 28.61 108.199 29.0936C107.984 29.5592 107.877 30.1681 107.877 30.9203V38.1467H102.773V23.5865H107.635V27.6429L106.668 26.4878C107.205 25.449 107.939 24.67 108.871 24.1506C109.802 23.6133 110.841 23.3447 111.987 23.3447C113.294 23.3447 114.44 23.685 115.426 24.3655C116.428 25.0282 117.1 26.0669 117.44 27.4817L115.775 27.1325C116.294 25.9505 117.073 25.0282 118.112 24.3655C119.169 23.685 120.377 23.3447 121.739 23.3447ZM139.762 38.5228C136.986 38.5228 134.819 37.7616 133.261 36.2394C131.703 34.7171 130.924 32.559 130.924 29.7652V19.342H136.243V29.604C136.243 31.2158 136.556 32.371 137.183 33.0694C137.828 33.7679 138.705 34.1171 139.816 34.1171C140.926 34.1171 141.795 33.7679 142.422 33.0694C143.048 32.371 143.362 31.2158 143.362 29.604V19.342H148.6V29.7652C148.6 32.559 147.821 34.7171 146.263 36.2394C144.705 37.7616 142.538 38.5228 139.762 38.5228ZM161.122 38.3885C159.887 38.3885 158.83 38.1198 157.952 37.5826C157.075 37.0274 156.403 36.2035 155.938 35.1111C155.49 34.0007 155.266 32.5859 155.266 30.8666C155.266 29.1294 155.481 27.7146 155.911 26.6221C156.341 25.5117 156.985 24.6879 157.845 24.1506C158.723 23.6133 159.815 23.3447 161.122 23.3447C162.448 23.3447 163.648 23.6581 164.722 24.2849C165.815 24.8939 166.674 25.7625 167.301 26.8907C167.946 28.0011 168.268 29.3264 168.268 30.8666C168.268 32.4068 167.946 33.741 167.301 34.8693C166.674 35.9976 165.815 36.8662 164.722 37.4751C163.648 38.084 162.448 38.3885 161.122 38.3885ZM151.962 43.3583V23.5865H156.824V26.058L156.797 30.8666L157.066 35.7021V43.3583H151.962ZM160.048 34.332C160.621 34.332 161.131 34.1977 161.579 33.9291C162.045 33.6604 162.412 33.2664 162.681 32.7471C162.967 32.2277 163.11 31.6009 163.11 30.8666C163.11 30.1323 162.967 29.5055 162.681 28.9861C162.412 28.4668 162.045 28.0727 161.579 27.8041C161.131 27.5355 160.621 27.4012 160.048 27.4012C159.475 27.4012 158.955 27.5355 158.49 27.8041C158.042 28.0727 157.675 28.4668 157.388 28.9861C157.12 29.5055 156.985 30.1323 156.985 30.8666C156.985 31.6009 157.12 32.2277 157.388 32.7471C157.675 33.2664 158.042 33.6604 158.49 33.9291C158.955 34.1977 159.475 34.332 160.048 34.332Z" fill="#682DFE"/>
</svg>
