<svg width="24" height="24" viewBox="0 0 24 24" fill="none" xmlns="http://www.w3.org/2000/svg">
<path d="M2 12.0001L1.21913 11.3754L0.719375 12.0001L1.21913 12.6248L2 12.0001ZM11 13.0001C11.5523 13.0001 12 12.5523 12 12.0001C12 11.4478 11.5523 11.0001 11 11.0001V13.0001ZM5.21913 6.37537L1.21913 11.3754L2.78087 12.6248L6.78087 7.62476L5.21913 6.37537ZM1.21913 12.6248L5.21913 17.6248L6.78087 16.3754L2.78087 11.3754L1.21913 12.6248ZM2 13.0001H11V11.0001H2V13.0001Z" fill="#33363F"/>
<path d="M10 8.13199V7.38857C10 5.77023 10 4.96106 10.474 4.40157C10.9479 3.84207 11.7461 3.70905 13.3424 3.44299L15.0136 3.16446C18.2567 2.62394 19.8782 2.35369 20.9391 3.25238C22 4.15108 22 5.79499 22 9.08282V14.9173C22 18.2051 22 19.849 20.9391 20.7477C19.8782 21.6464 18.2567 21.3762 15.0136 20.8357L13.3424 20.5571C11.7461 20.2911 10.9479 20.158 10.474 19.5986C10 19.0391 10 18.2299 10 16.6116V16.066" stroke="#33363F" stroke-width="2"/>
</svg>
